<?xml version="1.0" standalone="no"?><!DOCTYPE svg PUBLIC "-//W3C//DTD SVG 1.1//EN" "http://www.w3.org/Graphics/SVG/1.1/DTD/svg11.dtd"><svg t="1513301507977" class="icon" style="" viewBox="0 0 1024 1024" version="1.1" xmlns="http://www.w3.org/2000/svg" p-id="3202" xmlns:xlink="http://www.w3.org/1999/xlink" width="200" height="200"><defs><style type="text/css"></style></defs><path d="M512 0C229.229568 0 0 229.229568 0 512s229.229568 512 512 512 512-229.229568 512-512S794.770432 0 512 0zM237.672448 693.958656c8.815616 1.119232 17.768448 1.728512 26.856448 1.728512 52.763648 0.067584 101.321728-19.05664 139.774976-51.16928-49.26976-1.186816-90.809344-36.182016-105.11872-84.1984 6.849536 1.458176 13.935616 2.272256 21.159936 2.306048 10.273792 0.067584 20.20864-1.321984 29.635584-4.03456-51.474432-11.42784-90.30144-60.563456-90.30144-119.057408v-1.524736c15.19104 9.189376 32.519168 14.784512 51.00032 15.632384-30.144512-21.940224-50.01728-59.17184-50.01728-101.051392 0-22.141952 5.527552-42.826752 15.225856-60.493824 55.543808 73.752576 138.48576 122.718208 232.008704 128.822272-1.933312-8.781824-2.916352-17.972224-2.916352-27.33056 0-66.122752 50.388992-118.921216 112.544768-117.868544 32.384 0.541696 61.647872 15.496192 82.162688 38.928384 25.669632-4.917248 49.74592-14.411776 71.482368-27.669504-8.410112 27.60192-26.279936 50.592768-49.542144 64.969728 22.787072-2.577408 44.488704-8.612864 64.664576-17.80224-15.089664 23.601152-34.18112 44.218368-56.187904 60.6976 0.237568 5.12 0.338944 10.24 0.338944 15.361024 0 157.069312-113.258496 338.146304-320.275456 338.043904-63.511552 0.067584-122.717184-19.939328-172.495872-54.289408z" p-id="3203"></path></svg>