<?xml version="1.0" standalone="no"?><!DOCTYPE svg PUBLIC "-//W3C//DTD SVG 1.1//EN" "http://www.w3.org/Graphics/SVG/1.1/DTD/svg11.dtd"><svg t="1508391370609" class="icon" style="" viewBox="0 0 1024 1024" version="1.1" xmlns="http://www.w3.org/2000/svg" p-id="597" xmlns:xlink="http://www.w3.org/1999/xlink" width="64" height="64"><defs><style type="text/css"></style></defs><path d="M840.152175 414.201545h-210.817988c81.6825-294.534948-56.293215-309.582991-56.293216-309.58299-58.49764 0-46.355384 45.149247-50.772425 52.670709 0 144.041211-156.729198 256.913306-156.729198 256.913305v408.481098c0 40.307294 56.287072 54.821892 78.364087 54.821892h316.778857c29.80223 0 54.082647-76.325532 54.082646-76.325531 78.371254-260.132401 78.371254-337.525845 78.371255-337.525845 0-53.746812-52.985042-49.45059-52.985042-49.45059l0.001024-0.002048z m-561.126018 0.134129H152.784168c-26.078359 0-26.489961 24.995089-26.489961 24.995089l26.078359 411.968451c0 26.204297 26.902587 26.204297 26.902587 26.204298h109.270066c22.765066 0 22.558241-17.333355 22.558241-17.333355V445.576463c0-31.641128-32.076279-31.240789-32.077303-31.240789z" p-id="598" ></path></svg>
