<?xml version="1.0" standalone="no"?><!DOCTYPE svg PUBLIC "-//W3C//DTD SVG 1.1//EN" "http://www.w3.org/Graphics/SVG/1.1/DTD/svg11.dtd"><svg t="1513302510297" class="icon" style="" viewBox="0 0 1024 1024" version="1.1" xmlns="http://www.w3.org/2000/svg" p-id="2623" xmlns:xlink="http://www.w3.org/1999/xlink" width="200" height="200"><defs><style type="text/css"></style></defs><path d="M411.180809 607.417148c-17.912039-7.505997-41.226122 0.170591-52.257664 17.513994-11.145269 17.400267-5.97068 38.041759 11.884496 46.173256 18.025766 8.302088 42.079076 0.398045 53.338072-17.45713 10.974678-17.968903 5.117725-38.553532-12.964904-46.23012zM455.363838 589.107064c-6.823634-2.67259-15.466904 0.6255-19.561084 7.335406-3.866726 6.76677-1.649045 14.500222 5.117726 17.343403 7.107952 2.900044 15.978676-0.454909 20.072856-7.335407 3.92359-6.937361 1.364727-14.727677-5.629498-17.343402z" p-id="2624"></path><path d="M427.386939 469.124833c-115.88805 11.429587-203.7992 82.167925-196.293203 157.967126 7.562861 75.912928 107.642825 128.113727 223.644603 116.741004 115.944913-11.429587 203.7992-82.167925 196.236339-158.080853-7.562861-75.7992-107.585962-128.056864-223.587739-116.627277z m101.785873 178.892937c-23.712128 53.338072-91.777876 81.76988-149.55131 63.175477-55.66948-17.912039-79.324745-72.785429-54.87339-122.199911 23.882719-48.447801 86.318969-75.7992 141.476677-61.526432 57.091071 14.78454 86.205242 68.40693 62.948023 120.550866z"  p-id="2625"></path><path d="M511.772546 0a511.772546 511.772546 0 1 0 0 1023.545091 511.772546 511.772546 0 0 0 0-1023.545091z m-56.408708 794.669036c-145.286539 0-293.871168-70.169702-293.871168-185.602843 0-60.332297 38.496668-130.103954 104.515326-195.952022 88.252332-87.911151 191.118614-127.943136 229.785873-89.389604 17.059085 17.002221 18.651266 46.457574 7.733452 81.599289-5.743225 17.684585 16.66104 7.904043 16.66104 7.960906 71.250111-29.739671 133.515771-31.559307 156.204353 0.852955 12.168814 17.229676 10.917814 41.396713-0.17059 69.487339-5.174589 12.908041 1.535318 14.898267 11.429586 17.855175 40.088849 12.396268 84.840515 42.477121 84.840516 95.303421 0.056864 87.569969-126.692137 197.885384-317.128388 197.885384z m262.994225-366.997779a43.784984 43.784984 0 0 0-51.120391-56.579298 23.029765 23.029765 0 1 1-9.666815-44.97912 90.242559 90.242559 0 0 1 85.864061 27.692581c22.574856 24.735673 28.545535 58.398934 18.87872 88.024878a23.143492 23.143492 0 0 1-29.057307 14.841403 23.200355 23.200355 0 0 1-14.898268-29.000444zM852.954243 470.944469v0.113727a27.010218 27.010218 0 0 1-33.833852 17.172812 26.7259 26.7259 0 0 1-17.343403-33.66326 131.070635 131.070635 0 0 0-27.465127-128.511773 132.378498 132.378498 0 0 0-125.498-40.486895 26.7259 26.7259 0 1 1-11.202133-52.314526 185.944025 185.944025 0 0 1 176.504665 56.920479A184.238116 184.238116 0 0 1 852.954243 470.944469z" p-id="2626"></path></svg>